<!DOCTYPE svg PUBLIC "-//W3C//DTD SVG 1.1//EN" "http://www.w3.org/Graphics/SVG/1.1/DTD/svg11.dtd">
<svg version="1.1" xmlns="http://www.w3.org/2000/svg" xmlns:xlink="http://www.w3.org/1999/xlink" x="0px" y="0px"
	 width="125px" height="125px" viewBox="0 0 125 125" enable-background="new 0 0 125 125" xml:space="preserve">
<g>
	<path fill="#A3CD39" d="M116.321,62.499c0,29.729-24.093,53.823-53.821,53.823c-29.726,0-53.821-24.094-53.821-53.823
		c0-29.725,24.096-53.821,53.821-53.821C92.229,8.678,116.321,32.774,116.321,62.499z"/>
	<circle fill="#FFFFFF" cx="62.5" cy="62.5" r="33.57"/>
	<path fill="#FFFFFF" d="M62.5,100.215c-20.793,0-37.71-16.918-37.71-37.718c0-20.793,16.917-37.711,37.71-37.711
		s37.711,16.918,37.711,37.711C100.211,83.297,83.293,100.215,62.5,100.215z M62.5,26.569c-19.813,0-35.928,16.116-35.928,35.928
		S42.687,98.428,62.5,98.428c19.809,0,35.928-16.119,35.928-35.931S82.309,26.569,62.5,26.569z"/>
	<path fill="#FFFFFF" d="M20.312,54.688c0,0.929-0.737,1.682-1.649,1.682c-0.908,0-1.646-0.753-1.646-1.682
		c0-0.926,0.738-1.68,1.646-1.68C19.575,53.008,20.312,53.762,20.312,54.688z"/>
	<path fill="#FFFFFF" d="M107.982,54.688c0,0.929-0.74,1.682-1.648,1.682c-0.909,0-1.648-0.753-1.648-1.682
		c0-0.926,0.739-1.68,1.648-1.68C107.242,53.008,107.982,53.762,107.982,54.688z"/>
	<g>
		<g opacity="0.7">
			<path fill="#D9DBDC" d="M77.41,55.31v-8.348c0-8.223-6.689-14.912-14.91-14.912s-14.91,6.689-14.91,14.912v8.348l-4.221,0.372
				v30.947L62.5,88.316l19.131-1.688V55.682L77.41,55.31z M52.091,54.913v-7.951c0-5.741,4.669-10.411,10.409-10.411
				s10.409,4.67,10.409,10.411v7.951L62.5,53.995L52.091,54.913z"/>
			<g opacity="0.1">
				<path fill="#636363" d="M77.41,55.31v-8.349c0-8.222-6.689-14.911-14.91-14.911v4.501c5.74,0,10.409,4.67,10.409,10.41v7.952
					L62.5,53.995v34.321l19.131-1.688V55.682L77.41,55.31z"/>
			</g>
		</g>
		<g>
			<g>
				<path fill="#A3CD39" d="M70.221,62.229c-3.995,3.994-7.978,7.979-7.978,7.979s-6.758-6.756-7.977-7.979
					C58.674,57.823,65.816,57.823,70.221,62.229z"/>
				<path fill="#FFFFFF" d="M57.654,62.826L57.654,62.826l0.598,0.601h0.002c2.198-2.202,5.777-2.197,7.975,0l0.603-0.6
					C64.3,60.3,60.184,60.3,57.654,62.826z M58.854,64.021v0.002l0.598,0.6l0,0c1.538-1.541,4.046-1.541,5.585,0l0.599-0.6
					C63.767,62.155,60.721,62.154,58.854,64.021z M61.246,66.418l0.997,0.998l0.997-0.998
					C62.688,65.867,61.796,65.867,61.246,66.418z M60.05,65.22L60.05,65.22l0.595,0.601c0.882-0.879,2.312-0.879,3.191,0
					l0.601-0.601C63.226,64.012,61.259,64.012,60.05,65.22z"/>
			</g>
			<g>
				<path fill="#2D2E34" d="M53.806,78.092v-3.033c0-0.379-0.186-0.666-0.662-0.666c-0.43,0-0.741,0.279-0.894,0.482v3.217h-1.587
					v-3.033c0-0.379-0.178-0.666-0.659-0.666c-0.425,0-0.724,0.279-0.891,0.482v3.217h-1.588v-4.98h1.588v0.609
					c0.219-0.287,0.856-0.732,1.641-0.732c0.71,0,1.206,0.299,1.411,0.891c0.289-0.438,0.938-0.891,1.724-0.891
					c0.915,0,1.492,0.474,1.492,1.494v3.609H53.806z"/>
				<path fill="#2D2E34" d="M56.217,75.596c0-1.398,1.019-2.607,2.712-2.607c1.709,0,2.721,1.209,2.721,2.607
					c0,1.406-1.012,2.62-2.721,2.62C57.235,78.216,56.217,77.002,56.217,75.596z M60.02,75.596c0-0.657-0.391-1.203-1.091-1.203
					c-0.691,0-1.07,0.543-1.07,1.203c0,0.67,0.379,1.219,1.07,1.219C59.629,76.814,60.02,76.266,60.02,75.596z"/>
				<path fill="#A3CD39" d="M62.351,79.369l0.689-1.135c0.384,0.418,0.94,0.58,1.515,0.58c0.529,0,1.272-0.217,1.272-1.145v-0.382
					c-0.417,0.485-0.91,0.723-1.479,0.723c-1.216,0-2.192-0.839-2.192-2.517c0-1.634,0.948-2.506,2.192-2.506
					c0.56,0,1.073,0.22,1.479,0.711v-0.588h1.571v4.541c0,2.028-1.606,2.459-2.844,2.459C63.703,80.111,62.988,79.895,62.351,79.369
					z M65.827,76.165v-1.329c-0.198-0.27-0.62-0.443-0.95-0.443c-0.632,0-1.093,0.379-1.093,1.102c0,0.736,0.461,1.113,1.093,1.113
					C65.207,76.607,65.629,76.432,65.827,76.165z"/>
				<path fill="#A3CD39" d="M68.451,71.751c0-0.505,0.402-0.905,0.909-0.905c0.503,0,0.906,0.4,0.906,0.905
					c0,0.507-0.403,0.92-0.906,0.92C68.854,72.671,68.451,72.258,68.451,71.751z M68.569,78.092v-4.98h1.587v4.98H68.569z"/>
				<path fill="#A3CD39" d="M72.587,78.092l-1.962-4.98h1.673l1.123,3.154l1.136-3.154h1.678l-1.958,4.98H72.587z"/>
				<path fill="#A3CD39" d="M77.236,71.484v1.998h-0.29v-1.998h-0.641v-0.269h1.571v0.269H77.236z M80.163,73.482v-1.873
					l-0.772,1.873h-0.082l-0.777-1.873v1.873h-0.286v-2.267h0.444l0.657,1.651l0.664-1.651h0.442v2.267H80.163L80.163,73.482z"/>
			</g>
		</g>
	</g>
	<g>
		<path fill="#FFFFFF" d="M21.199,43.601c-1.699-0.919-2.148-2.824-1.235-4.516c0.718-1.328,1.852-1.632,2.773-1.604l-0.083,1.533
			c-0.533-0.054-1.152,0.22-1.437,0.748c-0.485,0.897-0.138,1.909,0.763,2.395c0.9,0.486,1.935,0.226,2.421-0.675
			c0.286-0.527,0.176-1.193-0.163-1.611l1.236-0.909c0.519,0.738,0.898,1.871,0.18,3.199C24.742,43.853,22.893,44.516,21.199,43.601
			z"/>
		<path fill="#FFFFFF" d="M27.662,38.6l-4.96-3.801l2.786-3.637l1.115,0.854l-1.807,2.358l0.775,0.592l1.765-2.307l1.116,0.854
			l-1.766,2.307l0.841,0.646l1.807-2.359l1.114,0.854L27.662,38.6z"/>
		<path fill="#FFFFFF" d="M34.087,31.31l-2.207-0.799l-0.598,0.568l1.446,1.522l-1.169,1.111l-4.309-4.532l2.269-2.157
			c1.006-0.957,2.211-0.833,3.01,0.009c0.752,0.787,0.669,1.668,0.391,2.219l2.506,0.785L34.087,31.31z M31.334,28.155
			c-0.29-0.305-0.716-0.236-1.022,0.055l-0.924,0.879l0.924,0.971l0.924-0.878C31.541,28.891,31.639,28.476,31.334,28.155z"/>
		<path fill="#FFFFFF" d="M37.729,28.335l-2.771-3.969l-1.437,1.004l-0.804-1.151l4.183-2.924l0.805,1.151l-1.428,0.997l2.773,3.969
			L37.729,28.335z"/>
		<path fill="#FFFFFF" d="M41.85,25.694l-2.957-5.502l1.419-0.762l2.957,5.501L41.85,25.694z"/>
		<path fill="#FFFFFF" d="M44.929,24.072l-2.305-5.805l4.255-1.689l0.519,1.305l-2.759,1.098l0.36,0.903l2.697-1.071l0.518,1.306
			l-2.696,1.071l0.909,2.289L44.929,24.072z"/>
		<path fill="#FFFFFF" d="M50.77,21.958l-1.623-6.044l1.559-0.418l1.623,6.042L50.77,21.958z"/>
		<path fill="#FFFFFF" d="M54.16,21.078l-0.904-6.187l4.536-0.664l0.201,1.391l-2.939,0.432l0.143,0.964l2.875-0.421l0.202,1.391
			l-2.874,0.422l0.152,1.047l2.941-0.43l0.205,1.391L54.16,21.078z"/>
		<path fill="#FFFFFF" d="M60.336,20.27l0.096-6.249l2.623,0.04c1.969,0.03,3.366,1.233,3.336,3.172
			c-0.029,1.939-1.464,3.108-3.42,3.078L60.336,20.27z M64.742,17.208c0.014-0.966-0.556-1.724-1.698-1.742l-1.023-0.015
			L61.97,18.89l1.012,0.017C64.078,18.922,64.727,18.135,64.742,17.208z"/>
		<path fill="#FFFFFF" d="M70.784,20.14l1.13-0.954c0.318,0.547,0.896,1.084,1.721,1.3c0.533,0.139,0.916,0.016,0.99-0.274
			c0.213-0.824-3.382-1.055-2.776-3.384c0.264-1.015,1.36-1.696,2.911-1.293c0.969,0.254,1.737,0.762,2.235,1.483l-1.143,0.892
			c-0.397-0.549-1.006-0.93-1.603-1.085c-0.455-0.119-0.699,0.011-0.766,0.265c-0.201,0.77,3.361,1.098,2.775,3.345
			c-0.316,1.215-1.423,1.787-3.045,1.363C71.992,21.479,71.238,20.877,70.784,20.14z"/>
		<path fill="#FFFFFF" d="M77.139,22.86l2.465-5.742l4.207,1.809l-0.553,1.29l-2.729-1.172l-0.385,0.896l2.668,1.146l-0.554,1.291
			l-2.668-1.145l-0.418,0.972l2.728,1.171l-0.553,1.292L77.139,22.86z"/>
		<path fill="#FFFFFF" d="M84.219,22.613c1.036-1.631,2.97-1.945,4.592-0.914c1.275,0.81,1.498,1.962,1.402,2.88l-1.521-0.189
			c0.092-0.531-0.139-1.166-0.646-1.487c-0.862-0.549-1.894-0.271-2.442,0.591c-0.549,0.864-0.359,1.916,0.501,2.464
			c0.507,0.322,1.179,0.262,1.621-0.048l0.819,1.298c-0.773,0.465-1.932,0.764-3.203-0.047
			C83.719,26.129,83.188,24.236,84.219,22.613z"/>
		<path fill="#FFFFFF" d="M90.486,27.497l2.508-2.744l1.21,1.105l-2.472,2.704c-0.498,0.545-0.535,1.236,0.115,1.831
			c0.636,0.581,1.33,0.49,1.828-0.057l2.47-2.703l1.202,1.1l-2.5,2.737c-1.05,1.148-2.486,1.318-3.959-0.027
			C89.402,30.085,89.449,28.632,90.486,27.497z"/>
		<path fill="#FFFFFF" d="M96.469,37.456l1.019-2.117l-0.507-0.653l-1.66,1.288l-0.988-1.275l4.943-3.833l1.922,2.477
			c0.85,1.099,0.605,2.284-0.312,2.996c-0.861,0.666-1.73,0.496-2.249,0.163l-1.034,2.416L96.469,37.456z M99.886,35.034
			c0.333-0.259,0.308-0.69,0.049-1.023l-0.781-1.009l-1.061,0.822l0.781,1.008C99.135,35.166,99.537,35.305,99.886,35.034z"/>
		<path fill="#FFFFFF" d="M98.412,40.242l5.47-3.021l2.216,4.01l-1.23,0.68l-1.436-2.601l-0.854,0.472l1.404,2.543l-1.229,0.679
			l-1.406-2.543l-0.926,0.512l1.436,2.601l-1.23,0.681L98.412,40.242z"/>
	</g>
	<g>
		<path fill="#FFFFFF" d="M14.022,63.852l6.233-0.477l0.238,3.121c0.106,1.4-0.778,2.239-1.91,2.327
			c-1.12,0.085-2.124-0.608-2.231-2.011l-0.115-1.514l-2.093,0.159L14.022,63.852z M18.459,67.188
			c0.431-0.033,0.65-0.369,0.616-0.799l-0.1-1.299l-1.337,0.103l0.1,1.297C17.771,66.92,18.04,67.221,18.459,67.188z"/>
		<path fill="#FFFFFF" d="M17.784,70.467c1.877-0.462,3.491,0.646,3.952,2.515c0.36,1.466-0.274,2.454-0.979,3.052l-0.968-1.192
			c0.434-0.319,0.705-0.937,0.562-1.519c-0.244-0.992-1.181-1.506-2.173-1.262c-0.995,0.244-1.587,1.135-1.343,2.125
			c0.144,0.584,0.673,1.006,1.205,1.086l-0.306,1.506c-0.88-0.199-1.921-0.785-2.281-2.25C14.992,72.66,15.917,70.926,17.784,70.467
			z"/>
		<path fill="#FFFFFF" d="M16.928,78.955l5.851-2.227l0.573,1.51L17.5,80.465L16.928,78.955z"/>
		<path fill="#FFFFFF" d="M19.143,84.582l6.869-1.26l0.495,0.896l-6.872,1.258L19.143,84.582z"/>
		<path fill="#FFFFFF" d="M23.576,91.47l4.785-4.023l1.689,2.009c1.266,1.508,1.273,3.351-0.212,4.602
			c-1.486,1.246-3.309,0.93-4.568-0.57L23.576,91.47z M28.776,92.793c0.738-0.622,0.94-1.55,0.204-2.426l-0.659-0.783l-2.633,2.215
			l0.652,0.775C27.046,93.414,28.065,93.389,28.776,92.793z"/>
		<path fill="#FFFFFF" d="M32.273,100.383l0.349-0.885l-1.875-1.599l-0.82,0.483l-1.389-1.186l5.845-3.229l1.539,1.314l-2.261,6.286
			L32.273,100.383z M34.117,95.839l-2.13,1.271l1.211,1.033L34.117,95.839z"/>
		<path fill="#FFFFFF" d="M37.137,104.023l5.201-4.67l0.891,0.506l-5.203,4.666L37.137,104.023z"/>
		<path fill="#FFFFFF" d="M44.548,107.59l1.971-5.932l2.49,0.827c1.867,0.622,2.838,2.188,2.227,4.03
			c-0.612,1.84-2.33,2.523-4.188,1.906L44.548,107.59z M49.671,105.996c0.304-0.918-0.012-1.812-1.096-2.173l-0.971-0.323
			l-1.085,3.264l0.96,0.321C48.521,107.43,49.378,106.875,49.671,105.996z"/>
		<path fill="#FFFFFF" d="M52.422,109.064l1.03-1.062c0.377,0.514,1.006,0.993,1.85,1.125c0.546,0.086,0.914-0.075,0.961-0.372
			c0.131-0.843-3.479-0.716-3.106-3.101c0.163-1.038,1.189-1.826,2.775-1.578c0.993,0.154,1.808,0.587,2.378,1.257l-1.05,1.004
			c-0.454-0.507-1.098-0.829-1.709-0.925c-0.464-0.07-0.696,0.081-0.737,0.342c-0.124,0.787,3.463,0.762,3.104,3.061
			c-0.195,1.244-1.243,1.924-2.903,1.666C53.76,110.283,52.951,109.756,52.422,109.064z"/>
		<path fill="#FFFFFF" d="M59.31,110.01l0.871-1.196c0.442,0.458,1.131,0.843,1.984,0.856c0.552,0.006,0.893-0.203,0.896-0.502
			c0.012-0.854-3.54-0.225-3.503-2.631c0.016-1.049,0.922-1.973,2.523-1.949c1.002,0.016,1.868,0.328,2.525,0.91l-0.899,1.139
			c-0.517-0.439-1.198-0.665-1.815-0.673c-0.47-0.009-0.678,0.177-0.683,0.438c-0.012,0.797,3.53,0.27,3.495,2.593
			c-0.02,1.255-0.96,2.075-2.638,2.05C60.804,111.025,59.928,110.618,59.31,110.01z"/>
		<path fill="#FFFFFF" d="M69.181,107.43c-0.407-1.886,0.745-3.467,2.622-3.873c1.474-0.319,2.441,0.345,3.018,1.064l-1.215,0.934
			c-0.307-0.443-0.916-0.732-1.502-0.606c-0.998,0.216-1.537,1.138-1.32,2.134c0.216,0.999,1.085,1.615,2.084,1.4
			c0.586-0.127,1.02-0.643,1.117-1.17l1.494,0.348c-0.225,0.871-0.836,1.895-2.31,2.214
			C71.292,110.279,69.586,109.307,69.181,107.43z"/>
		<path fill="#FFFFFF" d="M76.761,105.656c-0.731-1.756,0.082-3.537,1.849-4.27c1.765-0.735,3.591-0.055,4.321,1.703
			c0.731,1.758-0.073,3.533-1.837,4.266C79.327,108.092,77.492,107.412,76.761,105.656z M81.416,103.719
			c-0.393-0.943-1.311-1.416-2.262-1.019c-0.959,0.4-1.271,1.384-0.88,2.326c0.389,0.936,1.309,1.414,2.271,1.015
			C81.497,105.646,81.805,104.653,81.416,103.719z"/>
		<path fill="#FFFFFF" d="M91.24,101.527l-2.285-3.363l0.977,4.253l-0.59,0.401l-3.588-2.479l2.287,3.363l-1.332,0.906l-3.516-5.168
			l1.853-1.26l2.983,2.073l-0.821-3.543l1.853-1.259l3.514,5.168L91.24,101.527z"/>
		<path fill="#FFFFFF" d="M94.854,98.629l-4.404-4.437l2.222-2.205c0.997-0.991,2.209-0.86,3.009-0.055
			c0.791,0.798,0.914,2.01-0.084,3.001l-1.078,1.069l1.479,1.49L94.854,98.629z M94.515,93.086
			c-0.304-0.305-0.701-0.255-1.007,0.049l-0.924,0.92l0.943,0.949l0.926-0.916C94.758,93.783,94.813,93.387,94.515,93.086z"/>
		<path fill="#FFFFFF" d="M100.025,93.189l-4.992-3.77l0.971-1.287l3.869,2.921l1.516-2.007l1.123,0.848L100.025,93.189z"/>
		<path fill="#FFFFFF" d="M103.5,88.309l-5.342-3.242l0.836-1.379l5.344,3.244L103.5,88.309z"/>
		<path fill="#FFFFFF" d="M107.29,81.031l-0.947-0.09l-1.016,2.246l0.692,0.652l-0.754,1.666l-4.723-4.721l0.832-1.843l6.668,0.426
			L107.29,81.031z M102.412,80.521l1.813,1.696l0.655-1.452L102.412,80.521z"/>
		<path fill="#FFFFFF" d="M109.793,73.074l-4.151,1.678l3.505,0.885l-0.393,1.562l-6.061-1.528l0.407-1.606l3.952-1.613
			l-3.334-0.841l0.396-1.571l6.057,1.527L109.793,73.074z"/>
		<path fill="#FFFFFF" d="M110.698,67.4l-4.832-0.406l-0.146,1.748l-1.403-0.118l0.428-5.094l1.403,0.119l-0.146,1.737l4.831,0.406
			L110.698,67.4z"/>
	</g>
</g>
</svg>